<?xml version="1.0" standalone="no"?>
<!DOCTYPE svg PUBLIC "-//W3C//DTD SVG 20010904//EN"
 "http://www.w3.org/TR/2001/REC-SVG-20010904/DTD/svg10.dtd">
<svg version="1.0" xmlns="http://www.w3.org/2000/svg"
 width="1280.000000pt" height="788.000000pt" viewBox="0 0 1280.000000 788.000000"
 preserveAspectRatio="xMidYMid meet">

<g transform="translate(0.000000,788.000000) scale(0.100000,-0.100000)"
fill="#000000" stroke="none">
<path d="M6818 7873 c12 -2 32 -2 45 0 12 2 2 4 -23 4 -25 0 -35 -2 -22 -4z"/>
<path d="M6714 7856 c-44 -19 -108 -80 -133 -124 -13 -22 -14 -27 -4 -13 41
57 113 119 154 134 24 8 37 16 29 16 -8 0 -29 -6 -46 -13z"/>
<path d="M6965 7843 c17 -8 38 -22 48 -31 9 -8 17 -11 17 -5 0 10 -71 53 -86
53 -5 -1 5 -8 21 -17z"/>
<path d="M7055 7770 c10 -11 20 -20 22 -20 2 0 -2 9 -9 20 -7 11 -17 20 -22
20 -5 0 -1 -9 9 -20z"/>
<path d="M7095 7716 c10 -14 19 -26 22 -26 7 0 -17 39 -28 46 -6 3 -3 -5 6
-20z"/>
<path d="M7140 7648 c21 -35 67 -93 54 -68 -14 26 -65 100 -69 100 -3 0 5 -15
15 -32z"/>
<path d="M6495 7604 c-9 -15 -12 -23 -6 -20 11 7 35 46 28 46 -3 0 -12 -12
-22 -26z"/>
<path d="M6456 7545 c-9 -14 -23 -37 -32 -52 l-16 -28 20 24 c24 29 55 81 49
81 -3 0 -12 -11 -21 -25z"/>
<path d="M7217 7529 c10 -17 24 -36 32 -42 8 -7 2 7 -14 31 -32 49 -45 57 -18
11z"/>
<path d="M6393 7448 c-15 -20 -25 -38 -20 -38 3 0 12 11 21 25 17 26 16 35 -1
13z"/>
<path d="M7285 7430 c16 -28 108 -165 118 -175 15 -15 1 9 -56 95 -47 71 -81
115 -62 80z"/>
<path d="M6353 7388 c-15 -20 -25 -38 -20 -38 3 0 12 11 21 25 17 26 16 35 -1
13z"/>
<path d="M6252 7237 c-28 -45 -61 -97 -73 -114 -11 -18 -19 -33 -16 -33 7 0
149 221 145 225 -2 2 -27 -33 -56 -78z"/>
<path d="M7440 7191 c5 -11 15 -23 21 -27 6 -3 3 5 -6 20 -20 30 -30 35 -15 7z"/>
<path d="M6797 7133 c18 -2 50 -2 70 0 21 2 7 4 -32 4 -38 0 -55 -2 -38 -4z"/>
<path d="M6965 7104 c17 -9 38 -23 48 -32 9 -8 19 -13 21 -11 6 6 -53 46 -79
54 -11 3 -6 -1 10 -11z"/>
<path d="M7500 7100 c6 -11 13 -20 16 -20 2 0 0 9 -6 20 -6 11 -13 20 -16 20
-2 0 0 -9 6 -20z"/>
<path d="M6675 7091 c-16 -10 -39 -29 -50 -42 -15 -18 -11 -16 16 6 20 17 44
35 55 42 10 6 17 12 14 12 -3 1 -18 -7 -35 -18z"/>
<path d="M6132 7053 c-26 -38 -34 -53 -29 -53 2 0 16 18 31 40 29 45 28 56 -2
13z"/>
<path d="M7556 7018 c20 -32 39 -58 41 -58 7 0 -29 58 -55 88 -13 15 -6 1 14
-30z"/>
<path d="M7076 7000 c46 -67 64 -87 38 -42 -10 19 -32 48 -47 65 -20 23 -18
17 9 -23z"/>
<path d="M6544 6934 c-30 -47 -54 -87 -52 -89 2 -2 29 37 60 86 32 49 55 89
52 89 -2 0 -29 -39 -60 -86z"/>
<path d="M6053 6933 c-9 -16 -22 -34 -27 -42 -8 -11 -8 -13 0 -8 13 7 56 77
49 77 -3 0 -12 -12 -22 -27z"/>
<path d="M8585 6927 c-4 -13 -5 -38 -2 -53 3 -21 4 -16 6 16 l1 45 26 -30 26
-30 -23 35 c-12 19 -24 37 -25 39 -2 2 -6 -8 -9 -22z"/>
<path d="M7162 6872 c17 -29 36 -56 41 -59 13 -8 -22 51 -50 85 -15 18 -12 9
9 -26z"/>
<path d="M7639 6895 c5 -11 17 -29 26 -40 l16 -20 -10 20 c-5 11 -17 29 -26
40 l-16 20 10 -20z"/>
<path d="M8655 6844 c10 -17 26 -41 37 -55 l20 -24 -17 31 c-10 17 -26 41 -37
55 l-20 24 17 -31z"/>
<path d="M5984 6828 c-4 -7 -14 -24 -22 -38 -14 -24 -13 -24 3 -5 20 24 37 55
31 55 -3 0 -8 -6 -12 -12z"/>
<path d="M8580 6158 c0 -618 -1 -680 -16 -662 -15 18 -15 18 -4 -3 5 -12 15
-25 20 -28 7 -4 10 229 10 684 0 380 -2 691 -5 691 -3 0 -5 -307 -5 -682z"/>
<path d="M7241 6750 c17 -27 35 -53 41 -56 12 -8 9 -1 -35 64 -39 58 -44 53
-6 -8z"/>
<path d="M7721 6766 c12 -20 25 -39 30 -42 5 -3 0 11 -12 30 -12 20 -25 39
-30 42 -5 3 0 -11 12 -30z"/>
<path d="M5882 6673 c-73 -109 -118 -181 -104 -168 15 14 173 255 167 255 -2
0 -31 -39 -63 -87z"/>
<path d="M6405 6724 c-9 -15 -12 -23 -6 -20 11 7 35 46 28 46 -3 0 -12 -12
-22 -26z"/>
<path d="M8735 6724 c10 -17 26 -41 37 -55 l20 -24 -17 31 c-10 17 -26 41 -37
55 l-20 24 17 -31z"/>
<path d="M7775 6684 c10 -17 26 -41 37 -55 l20 -24 -17 31 c-10 17 -26 41 -37
55 l-20 24 17 -31z"/>
<path d="M6356 6650 c-14 -22 -26 -43 -26 -47 0 -4 6 1 13 12 33 48 49 75 44
75 -2 0 -16 -18 -31 -40z"/>
<path d="M7305 6655 c50 -81 167 -255 171 -255 5 0 -28 53 -109 175 -57 86
-101 143 -62 80z"/>
<path d="M8811 6606 c12 -20 25 -39 30 -42 5 -3 0 11 -12 30 -12 20 -25 39
-30 42 -5 3 0 -11 12 -30z"/>
<path d="M7866 6548 c20 -32 39 -58 41 -58 7 0 -29 58 -55 88 -13 15 -6 1 14
-30z"/>
<path d="M6303 6568 c-15 -20 -25 -38 -20 -38 3 0 12 11 21 25 17 26 16 35 -1
13z"/>
<path d="M8865 6524 c10 -17 26 -41 37 -55 l20 -24 -17 31 c-10 17 -26 41 -37
55 l-20 24 17 -31z"/>
<path d="M6263 6508 c-15 -20 -25 -38 -20 -38 3 0 12 11 21 25 17 26 16 35 -1
13z"/>
<path d="M5734 6448 c-40 -65 -41 -66 -19 -41 24 27 58 83 51 83 -3 0 -18 -19
-32 -42z"/>
<path d="M7935 6443 c15 -24 30 -43 32 -43 7 0 -31 61 -46 73 -8 7 -2 -7 14
-30z"/>
<path d="M6204 6418 c-40 -65 -41 -66 -19 -41 24 27 58 83 51 83 -3 0 -18 -19
-32 -42z"/>
<path d="M8936 6418 c4 -7 17 -26 28 -43 21 -30 21 -40 26 -790 l5 -760 3 754
2 754 -31 49 c-17 26 -33 48 -36 48 -2 0 -1 -6 3 -12z"/>
<path d="M7987 6362 c10 -19 24 -39 32 -45 12 -10 12 -9 3 8 -6 11 -21 31 -33
45 l-21 25 19 -33z"/>
<path d="M5642 6308 c-36 -54 -44 -68 -39 -68 2 0 21 25 41 55 20 30 34 55 32
55 -3 0 -18 -19 -34 -42z"/>
<path d="M6116 6283 c-20 -32 -27 -46 -14 -31 26 30 62 88 55 88 -2 0 -21 -26
-41 -57z"/>
<path d="M7526 6320 c14 -26 65 -100 69 -100 6 0 -32 62 -56 90 -11 14 -17 18
-13 10z"/>
<path d="M8060 6250 c6 -11 13 -20 16 -20 2 0 0 9 -6 20 -6 11 -13 20 -16 20
-2 0 0 -9 6 -20z"/>
<path d="M5575 6204 c-9 -15 -12 -23 -6 -20 11 7 35 46 28 46 -3 0 -12 -12
-22 -26z"/>
<path d="M8116 6168 c20 -32 39 -58 41 -58 7 0 -29 58 -55 88 -13 15 -6 1 14
-30z"/>
<path d="M7606 6198 c28 -47 97 -148 101 -148 3 0 -3 12 -13 28 -58 90 -87
132 -91 132 -2 0 -1 -6 3 -12z"/>
<path d="M6045 6174 c-9 -15 -12 -23 -6 -20 11 7 35 46 28 46 -3 0 -12 -12
-22 -26z"/>
<path d="M5543 6158 c-15 -20 -25 -38 -20 -38 3 0 12 11 21 25 17 26 16 35 -1
13z"/>
<path d="M5897 5953 c-144 -220 -139 -213 -134 -213 3 0 40 53 83 118 123 186
184 282 179 282 -2 0 -60 -84 -128 -187z"/>
<path d="M5495 6084 c-9 -15 -12 -23 -6 -20 11 7 35 46 28 46 -3 0 -12 -12
-22 -26z"/>
<path d="M8181 6066 c12 -20 25 -39 30 -42 5 -3 0 11 -12 30 -12 20 -25 39
-30 42 -5 3 0 -11 12 -30z"/>
<path d="M12085 6080 c-3 -5 -4 -14 0 -19 4 -8 -29 -111 -80 -246 -5 -13 -5
-17 2 -10 9 10 103 262 103 278 0 10 -18 9 -25 -3z"/>
<path d="M12013 5987 c-66 -90 -234 -271 -337 -362 -43 -39 -84 -75 -90 -81
-6 -6 -23 -18 -38 -28 -16 -10 -28 -23 -28 -28 0 -14 134 99 240 203 146 144
339 370 313 368 -4 0 -32 -33 -60 -72z"/>
<path d="M5455 6024 c-9 -15 -12 -23 -6 -20 11 7 35 46 28 46 -3 0 -12 -12
-22 -26z"/>
<path d="M7739 5995 c6 -11 20 -31 31 -45 15 -17 18 -19 11 -5 -6 11 -20 31
-31 45 -15 17 -18 19 -11 5z"/>
<path d="M5416 5965 c-9 -14 -23 -37 -32 -52 l-16 -28 20 24 c24 29 55 81 49
81 -3 0 -12 -11 -21 -25z"/>
<path d="M8269 5935 c5 -11 17 -29 26 -40 l16 -20 -10 20 c-5 11 -17 29 -26
40 l-16 20 10 -20z"/>
<path d="M12102 5918 c-9 -9 -12 -87 -12 -291 0 -218 -3 -278 -12 -275 -7 3
-14 19 -16 36 -2 18 -9 32 -16 32 -7 0 -36 -48 -65 -107 -107 -216 -260 -469
-423 -695 l-41 -58 32 -63 c18 -35 52 -89 77 -121 55 -70 184 -167 260 -195
107 -41 114 -46 114 -95 0 -42 -2 -45 -40 -60 -48 -19 -67 -51 -53 -93 16 -46
42 -53 224 -53 209 0 226 3 247 46 20 44 7 75 -45 100 -35 18 -38 23 -41 66
-3 47 -2 48 35 64 212 89 325 186 406 347 46 93 67 186 67 299 0 98 -27 211
-61 260 -11 14 -19 30 -19 35 0 20 -92 134 -148 183 -71 62 -136 99 -242 137
-90 32 -110 26 -110 -34 0 -23 -4 -33 -12 -31 -10 4 -14 71 -16 279 -2 172 -7
278 -14 286 -13 16 -60 17 -76 1z m72 -24 c3 -9 6 -138 6 -289 0 -265 1 -273
20 -278 23 -6 45 25 36 49 -8 20 3 44 20 44 72 0 321 -136 309 -168 -3 -8 0
-10 6 -6 6 3 27 -11 45 -32 112 -125 182 -306 171 -439 -23 -280 -180 -492
-438 -590 -76 -29 -86 -45 -76 -111 7 -43 23 -64 48 -64 22 0 49 -26 49 -49 0
-9 -9 -27 -20 -39 -20 -21 -28 -22 -209 -22 -176 0 -189 1 -206 20 -25 27 -10
70 30 89 42 20 54 40 55 89 0 42 -1 44 -47 64 -98 41 -154 69 -185 91 -98 67
-178 158 -223 253 l-26 54 32 48 c18 26 36 49 39 52 4 3 46 64 92 135 103 156
216 353 284 492 46 96 67 125 63 86 -3 -38 1 -44 29 -41 l27 3 1 150 c0 83 1
212 2 288 l2 137 29 0 c17 0 31 -6 35 -16z"/>
<path d="M12138 5893 c7 -3 16 -2 19 1 4 3 -2 6 -13 5 -11 0 -14 -3 -6 -6z"/>
<path d="M7807 5889 c10 -17 24 -36 32 -42 8 -7 2 7 -14 31 -32 49 -45 57 -18
11z"/>
<path d="M5353 5868 c-15 -20 -25 -38 -20 -38 3 0 12 11 21 25 17 26 16 35 -1
13z"/>
<path d="M8335 5833 c15 -24 30 -43 32 -43 7 0 -31 61 -46 73 -8 7 -2 -7 14
-30z"/>
<path d="M7865 5804 c10 -17 26 -41 37 -55 l20 -24 -17 31 c-10 17 -26 41 -37
55 l-20 24 17 -31z"/>
<path d="M5313 5808 c-15 -20 -25 -38 -20 -38 3 0 12 11 21 25 17 26 16 35 -1
13z"/>
<path d="M11942 5667 c-69 -158 -67 -154 -55 -142 13 13 116 255 111 260 -2 2
-27 -51 -56 -118z"/>
<path d="M5254 5718 c-15 -24 -45 -69 -66 -100 -21 -32 -36 -58 -34 -58 5 0
62 82 110 158 14 23 24 42 21 42 -2 0 -17 -19 -31 -42z"/>
<path d="M8415 5713 c15 -24 30 -43 32 -43 7 0 -31 61 -46 73 -8 7 -2 -7 14
-30z"/>
<path d="M5735 5704 c-9 -15 -12 -23 -6 -20 11 7 35 46 28 46 -3 0 -12 -12
-22 -26z"/>
<path d="M7950 5675 l22 -35 -1132 0 c-1074 0 -1132 1 -1126 18 5 15 4 14 -9
-2 -8 -10 -12 -23 -9 -27 8 -14 2284 -11 2284 2 0 13 -39 79 -47 79 -2 0 5
-16 17 -35z"/>
<path d="M8476 5619 c24 -39 66 -99 70 -99 7 0 -57 99 -68 106 -7 5 -8 2 -2
-7z"/>
<path d="M5130 5530 c-6 -11 -8 -20 -6 -20 3 0 10 9 16 20 6 11 8 20 6 20 -3
0 -10 -9 -16 -20z"/>
<path d="M11852 5465 c-30 -62 -27 -71 4 -12 14 27 24 51 22 53 -3 2 -14 -17
-26 -41z"/>
<path d="M5082 5458 c-36 -54 -44 -68 -39 -68 2 0 21 25 41 55 20 30 34 55 32
55 -3 0 -18 -19 -34 -42z"/>
<path d="M11454 5442 c-123 -88 -187 -133 -212 -147 -15 -9 -40 -24 -57 -35
-60 -38 -243 -135 -370 -196 -71 -35 -125 -63 -120 -63 20 -1 392 188 500 254
115 70 300 198 310 215 9 15 5 12 -51 -28z"/>
<path d="M5532 5398 c-41 -61 -48 -78 -18 -43 14 17 28 38 31 48 6 16 73 17
1295 15 1030 -2 1286 0 1278 10 -8 9 -277 12 -1284 12 l-1273 0 -29 -42z"/>
<path d="M8130 5396 c0 -2 8 -10 18 -17 15 -13 16 -12 3 4 -13 16 -21 21 -21
13z"/>
<path d="M11755 5274 c-37 -71 -86 -157 -108 -193 -21 -37 -42 -70 -45 -75 -3
-5 -1 -6 5 -3 19 12 227 386 219 394 -2 2 -34 -53 -71 -123z"/>
<path d="M8169 5345 c5 -11 17 -29 26 -40 l16 -20 -10 20 c-5 11 -17 29 -26
40 l-16 20 10 -20z"/>
<path d="M4994 5323 c-30 -41 -39 -62 -15 -33 23 27 44 60 38 60 -2 0 -12 -12
-23 -27z"/>
<path d="M8225 5256 c10 -14 19 -26 22 -26 7 0 -17 39 -28 46 -6 3 -3 -5 6
-20z"/>
<path d="M4924 5218 c-4 -7 -14 -24 -22 -38 -14 -24 -13 -24 3 -5 20 24 37 55
31 55 -3 0 -8 -6 -12 -12z"/>
<path d="M5358 5133 c-62 -94 -83 -130 -71 -118 19 18 127 185 120 185 -2 0
-24 -30 -49 -67z"/>
<path d="M8280 5171 c5 -11 15 -23 21 -27 6 -3 3 5 -6 20 -20 30 -30 35 -15 7z"/>
<path d="M4852 5108 c-36 -54 -44 -68 -39 -68 2 0 21 25 41 55 20 30 34 55 32
55 -3 0 -18 -19 -34 -42z"/>
<path d="M8355 5060 c16 -28 108 -165 118 -175 15 -15 1 9 -56 95 -47 71 -81
115 -62 80z"/>
<path d="M4773 4988 c-15 -20 -25 -38 -20 -38 3 0 12 11 21 25 17 26 16 35 -1
13z"/>
<path d="M10605 4974 c-99 -41 -362 -129 -493 -164 -67 -18 -120 -35 -118 -37
15 -15 598 172 673 216 32 19 0 11 -62 -15z"/>
<path d="M5246 4965 c-9 -14 -23 -37 -32 -52 l-16 -28 20 24 c24 29 55 81 49
81 -3 0 -12 -11 -21 -25z"/>
<path d="M11525 4888 c-239 -361 -563 -703 -893 -946 -64 -48 -94 -76 -59 -56
14 8 156 114 173 129 6 6 36 30 65 55 204 170 396 373 569 600 36 47 68 87 71
90 5 5 128 191 143 218 4 6 5 12 3 12 -2 0 -35 -46 -72 -102z"/>
<path d="M4664 4823 c-94 -145 -106 -165 -97 -160 5 3 37 50 72 104 34 54 69
108 78 121 8 12 13 22 9 22 -3 0 -31 -39 -62 -87z"/>
<path d="M8489 4855 c5 -11 17 -29 26 -40 l16 -20 -10 20 c-5 11 -17 29 -26
40 l-16 20 10 -20z"/>
<path d="M5145 4808 c-16 -24 -22 -38 -14 -31 15 12 53 73 46 73 -2 0 -17 -19
-32 -42z"/>
<path d="M8908 4823 c12 -2 30 -2 40 0 9 3 -1 5 -23 4 -22 0 -30 -2 -17 -4z"/>
<path d="M8783 4813 c15 -2 37 -2 50 0 12 2 0 4 -28 4 -27 0 -38 -2 -22 -4z"/>
<path d="M8553 4802 c-7 -4 20 -6 60 -4 108 5 122 9 32 10 -44 1 -85 -2 -92
-6z"/>
<path d="M9958 4763 c7 -3 16 -2 19 1 4 3 -2 6 -13 5 -11 0 -14 -3 -6 -6z"/>
<path d="M5104 4748 c-4 -7 -14 -24 -22 -38 -14 -24 -13 -24 3 -5 20 24 37 55
31 55 -3 0 -8 -6 -12 -12z"/>
<path d="M9792 4732 c-62 -14 -110 -27 -108 -29 4 -5 248 46 255 53 9 8 -38 1
-147 -24z"/>
<path d="M9638 4693 c6 -2 18 -2 25 0 6 3 1 5 -13 5 -14 0 -19 -2 -12 -5z"/>
<path d="M9583 4683 c9 -2 23 -2 30 0 6 3 -1 5 -18 5 -16 0 -22 -2 -12 -5z"/>
<path d="M5032 4638 c-36 -55 -44 -68 -39 -68 2 0 17 19 33 42 41 61 46 68 40
68 -3 0 -18 -19 -34 -42z"/>
<path d="M9341 4652 c-90 -14 -159 -28 -153 -30 12 -4 364 47 371 54 9 8 -58
1 -218 -24z"/>
<path d="M4543 4638 c-15 -20 -25 -38 -20 -38 3 0 12 11 21 25 17 26 16 35 -1
13z"/>
<path d="M9065 4614 c-29 -5 -498 -44 -554 -45 -33 -2 -38 -3 -16 -6 16 -3
128 3 250 12 224 17 453 42 380 42 -22 0 -49 -1 -60 -3z"/>
<path d="M4495 4564 c-9 -15 -12 -23 -6 -20 11 7 35 46 28 46 -3 0 -12 -12
-22 -26z"/>
<path d="M5640 4579 c-85 -5 -193 -13 -240 -18 l-85 -10 105 5 c58 3 188 9
290 14 280 14 773 12 1180 -6 201 -8 392 -14 425 -12 33 2 -75 9 -240 17 -366
16 -1223 23 -1435 10z"/>
<path d="M4963 4533 c-9 -16 -22 -35 -27 -43 -9 -12 -8 -13 4 -3 17 13 54 73
46 73 -3 0 -13 -12 -23 -27z"/>
<path d="M8278 4553 c23 -2 61 -2 85 0 23 2 4 4 -43 4 -47 0 -66 -2 -42 -4z"/>
<path d="M5248 4503 c-94 -138 -166 -252 -161 -257 4 -3 29 -5 57 -4 l51 1
-48 6 -48 6 93 140 c50 77 97 143 102 147 7 5 7 8 -1 8 -7 0 -27 -21 -45 -47z"/>
<path d="M7658 4543 c78 -2 206 -2 285 0 78 1 14 3 -143 3 -157 0 -221 -2
-142 -3z"/>
<path d="M4436 4473 c-20 -32 -27 -46 -14 -31 26 30 62 88 55 88 -2 0 -21 -26
-41 -57z"/>
<path d="M4895 4428 c-16 -24 -22 -38 -14 -31 15 12 53 73 46 73 -2 0 -17 -19
-32 -42z"/>
<path d="M4380 4390 c-6 -11 -8 -20 -6 -20 3 0 10 9 16 20 6 11 8 20 6 20 -3
0 -10 -9 -16 -20z"/>
<path d="M3885 4314 c-525 -140 -1147 -393 -1514 -615 -34 -22 -65 -39 -67
-39 -2 0 -18 -10 -37 -22 -19 -13 -87 -57 -151 -98 -138 -89 -404 -286 -531
-395 -453 -387 -843 -852 -1158 -1377 -105 -176 -260 -469 -319 -603 -16 -38
-45 -102 -64 -141 -32 -65 -42 -104 -28 -104 3 0 31 19 62 43 113 86 160 116
262 167 100 50 158 64 260 65 78 0 104 -4 143 -22 172 -80 282 -274 343 -608
24 -128 24 -129 19 -50 -4 73 -31 197 -69 316 -17 54 -76 168 -114 219 -58 80
-138 135 -225 154 -72 17 -221 3 -298 -28 -34 -14 -67 -22 -72 -19 -6 3 -7 2
-4 -4 3 -5 -11 -18 -31 -27 -20 -10 -54 -29 -74 -43 -20 -14 -42 -22 -48 -18
-6 3 -9 2 -8 -3 2 -5 -27 -32 -64 -60 l-67 -52 20 48 c28 66 36 84 139 294 73
149 95 186 108 181 14 -4 14 -3 3 5 -11 8 -7 22 24 78 21 38 47 85 58 104 11
19 28 47 38 62 11 14 19 29 19 33 0 15 255 397 280 420 11 10 20 22 20 27 0
13 177 242 235 304 5 6 35 39 65 74 127 147 408 430 513 515 6 6 55 46 109 90
143 118 163 134 278 216 397 284 822 510 1312 695 95 36 229 84 298 105 157
50 474 139 479 134 1 -2 -41 -71 -95 -154 -112 -171 -82 -150 -314 -222 -131
-40 -344 -116 -405 -144 -16 -8 -55 -24 -85 -35 -269 -104 -716 -345 -1000
-538 -132 -90 -419 -307 -450 -340 -10 -9 -42 -38 -72 -64 -131 -114 -247
-226 -377 -368 -58 -63 -108 -117 -112 -120 -9 -7 -167 -205 -215 -270 -79
-107 -96 -131 -140 -198 -24 -37 -47 -71 -52 -77 -20 -26 -102 -156 -129 -205
-17 -30 -47 -86 -68 -125 -22 -38 -43 -73 -48 -76 -5 -4 -7 -11 -3 -17 4 -6
40 -1 100 14 52 13 125 28 163 34 l68 9 -85 -5 c-47 -2 -113 -11 -147 -18 -35
-7 -63 -11 -63 -8 0 3 25 51 57 106 311 555 734 1054 1229 1451 77 62 183 143
235 180 52 36 103 73 114 81 62 45 312 200 420 259 367 203 807 388 1171 494
l110 32 103 155 c56 86 105 162 108 170 8 20 -13 17 -162 -22z"/>
<path d="M4808 4298 c-64 -97 -70 -108 -65 -108 3 0 25 30 49 68 55 83 60 92
55 92 -2 0 -20 -24 -39 -52z"/>
<path d="M4292 4258 c-36 -54 -44 -68 -39 -68 2 0 21 25 41 55 20 30 34 55 32
55 -3 0 -18 -19 -34 -42z"/>
<path d="M5303 4263 c-66 -3 -103 -8 -103 -15 0 -6 12 -8 31 -4 17 3 190 7
383 8 251 1 318 3 236 8 -117 7 -361 8 -547 3z"/>
<path d="M6013 4243 c15 -2 39 -2 55 0 15 2 2 4 -28 4 -30 0 -43 -2 -27 -4z"/>
<path d="M6185 4229 c448 -56 797 -128 1065 -220 l85 -29 -85 5 c-47 3 -141
10 -210 15 -69 5 -156 9 -195 8 -60 -1 -55 -2 40 -9 61 -4 204 -15 318 -24
115 -9 211 -14 214 -12 7 8 -256 91 -412 131 -281 71 -619 129 -810 140 l-90
5 80 -10z"/>
<path d="M4207 4128 c-46 -74 -49 -78 -44 -78 4 0 19 21 71 103 10 15 16 27
12 27 -3 0 -20 -24 -39 -52z"/>
<path d="M4665 4078 c-16 -24 -22 -38 -14 -31 15 12 53 73 46 73 -2 0 -17 -19
-32 -42z"/>
<path d="M4122 3998 c-36 -54 -44 -68 -39 -68 2 0 21 25 41 55 20 30 34 55 32
55 -3 0 -18 -19 -34 -42z"/>
<path d="M4596 3973 c-20 -32 -27 -46 -14 -31 26 30 62 88 55 88 -2 0 -21 -26
-41 -57z"/>
<path d="M5968 4023 c100 -2 264 -2 365 0 100 1 18 2 -183 2 -201 0 -283 -1
-182 -2z"/>
<path d="M5355 4004 c-185 -16 -441 -47 -426 -52 6 -2 97 6 203 17 106 11 237
23 291 27 53 4 97 11 97 15 0 5 -3 8 -7 8 -5 -1 -75 -8 -158 -15z"/>
<path d="M5598 4013 c29 -2 74 -2 100 0 26 2 2 3 -53 3 -55 0 -76 -1 -47 -3z"/>
<path d="M6608 4013 c29 -2 74 -2 100 0 26 2 2 3 -53 3 -55 0 -76 -1 -47 -3z"/>
<path d="M4761 3764 c-67 -103 -120 -188 -117 -191 2 -3 57 75 121 174 64 98
124 184 133 191 14 11 14 12 0 12 -9 0 -65 -76 -137 -186z"/>
<path d="M4043 3878 c-39 -58 -49 -78 -24 -48 24 28 62 90 56 90 -2 0 -16 -19
-32 -42z"/>
<path d="M4544 3898 c-4 -7 -15 -24 -23 -38 -10 -15 -11 -21 -3 -16 13 7 46
66 38 66 -3 0 -8 -6 -12 -12z"/>
<path d="M10489 3842 c-210 -147 -511 -298 -832 -417 -81 -30 -44 -27 44 4
231 80 519 225 752 377 77 50 107 74 94 74 -2 0 -28 -17 -58 -38z"/>
<path d="M11930 3820 c-34 -34 -27 -81 20 -124 l40 -37 0 -819 c0 -644 -3
-821 -12 -827 -7 -4 -156 -10 -331 -13 l-319 -5 -19 -24 c-16 -19 -19 -40 -19
-121 0 -75 3 -100 15 -110 10 -8 51 -13 118 -14 l102 -1 0 -30 0 -30 -100 -3
c-55 -1 -103 -6 -108 -11 -4 -4 4 -24 18 -45 13 -20 32 -50 40 -66 14 -27 20
-29 76 -32 47 -2 65 -7 73 -21 9 -15 7 -21 -8 -33 -11 -8 -31 -14 -44 -14 -31
0 -31 -1 67 -148 l82 -122 181 0 182 1 46 -50 c47 -52 60 -56 130 -51 50 3 88
29 110 75 20 40 20 66 20 1263 0 689 4 1231 9 1244 5 13 25 40 45 60 39 40 45
71 20 106 -15 21 -20 22 -215 22 -186 0 -200 -1 -219 -20z m408 -6 c13 -9 22
-26 22 -41 0 -28 -25 -63 -45 -63 -7 0 -17 -8 -21 -17 -5 -10 -11 -578 -14
-1263 -6 -1392 1 -1283 -78 -1328 -22 -12 -51 -22 -64 -22 -38 0 -81 26 -101
60 -11 17 -30 35 -44 41 -13 5 -102 9 -196 9 l-172 1 -77 117 -77 117 31 5
c38 6 53 28 44 63 -6 25 -10 27 -64 27 -31 0 -62 4 -67 8 -6 4 -28 31 -49 60
l-38 52 95 0 c104 0 127 10 127 54 0 41 -23 50 -124 47 -66 -1 -96 2 -103 11
-6 7 -14 43 -18 80 -8 74 5 131 33 144 9 5 160 10 335 12 298 3 318 5 327 22
7 12 10 307 11 832 l0 813 -45 49 c-46 49 -51 72 -24 101 5 6 75 12 156 16 81
3 163 6 182 7 20 1 46 -5 58 -14z"/>
<path d="M11870 1633 c-63 -2 -125 -5 -136 -8 -27 -6 -36 -28 -24 -60 9 -25
11 -25 134 -25 68 0 131 3 140 6 18 7 23 74 5 74 -5 0 -7 5 -4 10 3 6 5 9 3 8
-2 -1 -55 -4 -118 -5z"/>
<path d="M4489 3813 c-13 -16 -12 -17 4 -4 9 7 17 15 17 17 0 8 -8 3 -21 -13z"/>
<path d="M3965 3758 c-16 -24 -22 -38 -14 -31 15 12 53 73 46 73 -2 0 -17 -19
-32 -42z"/>
<path d="M3868 3613 c-62 -94 -83 -130 -71 -118 19 18 127 185 120 185 -2 0
-24 -30 -49 -67z"/>
<path d="M4358 3613 c-62 -94 -83 -130 -71 -118 19 18 127 185 120 185 -2 0
-24 -30 -49 -67z"/>
<path d="M3420 3566 c-150 -62 -441 -204 -565 -276 -162 -94 -427 -276 -589
-406 -308 -246 -693 -663 -882 -954 -16 -25 -36 -53 -44 -62 -26 -29 -184
-289 -244 -400 -32 -60 -59 -108 -61 -108 -2 0 -23 13 -47 29 -49 33 -107 51
-158 50 -28 0 -23 -3 26 -14 55 -12 91 -30 160 -80 24 -17 24 -17 117 155 16
30 43 74 58 98 16 24 29 44 29 46 0 18 195 307 293 436 43 56 73 93 165 205
30 37 206 230 216 237 6 4 14 4 20 1 5 -3 6 -1 3 5 -10 16 144 167 303 296 47
38 90 74 95 80 6 6 33 27 60 46 28 19 59 42 70 51 99 84 389 263 610 379 147
76 484 226 490 217 2 -1 -77 -122 -174 -268 -208 -313 -282 -427 -297 -454 -6
-11 -99 -153 -206 -315 l-195 -296 -179 -179 c-309 -310 -532 -595 -796 -1016
-82 -131 -232 -387 -257 -439 -25 -52 19 13 71 105 242 427 520 830 763 1104
16 19 40 46 53 60 52 59 307 311 314 311 7 0 303 442 546 815 50 77 95 145
100 150 5 6 17 24 27 40 11 17 70 108 132 203 62 95 114 178 116 184 4 21 -21
15 -143 -36z"/>
<path d="M4552 3448 c-40 -61 -71 -113 -68 -115 2 -3 35 42 73 99 85 127 86
128 76 128 -4 -1 -41 -51 -81 -112z"/>
<path d="M4263 3468 c-15 -20 -25 -38 -20 -38 3 0 12 11 21 25 17 26 16 35 -1
13z"/>
<path d="M3745 3424 c-9 -15 -12 -23 -6 -20 11 7 35 46 28 46 -3 0 -12 -12
-22 -26z"/>
<path d="M4223 3408 c-15 -20 -25 -38 -20 -38 3 0 12 11 21 25 17 26 16 35 -1
13z"/>
<path d="M9470 3360 c-63 -21 -111 -38 -106 -39 15 -2 220 61 231 70 15 14 -1
10 -125 -31z"/>
<path d="M4164 3318 c-15 -24 -40 -63 -56 -88 -21 -31 -22 -37 -6 -18 27 32
100 148 93 148 -3 0 -17 -19 -31 -42z"/>
<path d="M3665 3304 c-9 -15 -12 -23 -6 -20 11 7 35 46 28 46 -3 0 -12 -12
-22 -26z"/>
<path d="M4400 3218 c-36 -56 -66 -108 -68 -115 -4 -17 11 -16 95 1 37 8 129
22 203 32 74 10 127 20 117 22 -25 5 -169 -14 -295 -39 -57 -11 -105 -19 -107
-17 -2 2 17 35 43 73 69 102 95 145 85 145 -4 0 -37 -46 -73 -102z"/>
<path d="M9220 3290 c-58 -15 -96 -29 -85 -29 21 -1 205 46 214 54 9 9 -25 3
-129 -25z"/>
<path d="M10000 3283 c8 -4 23 -16 33 -27 18 -21 18 -20 1 7 -9 15 -24 27 -33
26 -13 0 -13 -2 -1 -6z"/>
<path d="M3634 3258 c-4 -7 -14 -24 -22 -38 -14 -24 -13 -24 3 -5 20 24 37 55
31 55 -3 0 -8 -6 -12 -12z"/>
<path d="M9920 3255 c-14 -8 -20 -14 -15 -14 6 0 21 6 35 14 14 8 21 14 15 14
-5 0 -21 -6 -35 -14z"/>
<path d="M9088 3253 c7 -3 16 -2 19 1 4 3 -2 6 -13 5 -11 0 -14 -3 -6 -6z"/>
<path d="M9048 3243 c7 -3 16 -2 19 1 4 3 -2 6 -13 5 -11 0 -14 -3 -6 -6z"/>
<path d="M8835 3212 c-82 -15 -142 -28 -133 -30 19 -4 319 46 327 53 9 9 -45
3 -194 -23z"/>
<path d="M9815 3215 c-25 -12 -26 -14 -5 -9 28 7 60 23 45 23 -5 0 -23 -6 -40
-14z"/>
<path d="M10066 3203 c100 -154 167 -253 171 -253 5 0 -2 12 -28 50 -9 14 -47
71 -84 128 -37 56 -70 102 -72 102 -3 0 3 -12 13 -27z"/>
<path d="M5070 3191 c-47 -3 107 -6 342 -6 236 0 428 3 428 8 0 8 -638 6 -770
-2z"/>
<path d="M9735 3185 c-25 -12 -26 -14 -5 -9 28 7 60 23 45 23 -5 0 -23 -6 -40
-14z"/>
<path d="M3585 3179 c-4 -6 -5 -12 -2 -15 2 -3 7 2 10 11 7 17 1 20 -8 4z"/>
<path d="M5903 3183 c26 -2 67 -2 90 0 23 2 2 3 -48 3 -49 0 -68 -1 -42 -3z"/>
<path d="M4898 3173 c12 -2 30 -2 40 0 9 3 -1 5 -23 4 -22 0 -30 -2 -17 -4z"/>
<path d="M6118 3173 c29 -2 74 -2 100 0 26 2 2 3 -53 3 -55 0 -76 -1 -47 -3z"/>
<path d="M8633 3173 c9 -2 25 -2 35 0 9 3 1 5 -18 5 -19 0 -27 -2 -17 -5z"/>
<path d="M4793 3163 c15 -2 37 -2 50 0 12 2 0 4 -28 4 -27 0 -38 -2 -22 -4z"/>
<path d="M6353 3163 c31 -2 83 -2 115 0 31 2 5 3 -58 3 -63 0 -89 -1 -57 -3z"/>
<path d="M8548 3163 c12 -2 32 -2 45 0 12 2 2 4 -23 4 -25 0 -35 -2 -22 -4z"/>
<path d="M4032 3118 c-40 -60 -47 -72 -35 -65 10 7 75 107 68 107 -2 0 -17
-19 -33 -42z"/>
<path d="M6790 3149 c129 -3 300 -12 380 -19 312 -27 1123 -14 1309 21 53 10
10 8 -244 -13 -217 -17 -835 -13 -1085 6 -113 9 -293 15 -400 14 l-195 -2 235
-7z"/>
<path d="M3554 3138 c-4 -7 -14 -24 -22 -38 -14 -24 -13 -24 3 -5 20 24 37 55
31 55 -3 0 -8 -6 -12 -12z"/>
<path d="M9620 3142 c0 -9 49 -82 56 -82 2 0 -6 17 -20 37 -14 20 -23 40 -20
45 3 4 0 8 -5 8 -6 0 -11 -3 -11 -8z"/>
<path d="M9690 3030 c6 -11 13 -20 16 -20 2 0 0 9 -6 20 -6 11 -13 20 -16 20
-2 0 0 -9 6 -20z"/>
<path d="M3473 3013 c-9 -16 -22 -34 -27 -42 -8 -11 -8 -13 0 -8 13 7 56 77
49 77 -3 0 -12 -12 -22 -27z"/>
<path d="M3953 2998 c-44 -65 -47 -72 -35 -64 11 7 75 106 68 106 -3 0 -17
-19 -33 -42z"/>
<path d="M9746 2948 c20 -32 39 -58 41 -58 7 0 -29 58 -55 88 -13 15 -6 1 14
-30z"/>
<path d="M3416 2925 c-9 -14 -23 -37 -32 -52 l-16 -28 20 24 c24 29 55 81 49
81 -3 0 -12 -11 -21 -25z"/>
<path d="M3845 2833 c-88 -133 -126 -193 -121 -193 4 0 47 64 170 253 10 15
16 27 14 27 -3 0 -31 -39 -63 -87z"/>
<path d="M10295 2856 c10 -14 19 -26 22 -26 7 0 -17 39 -28 46 -6 3 -3 -5 6
-20z"/>
<path d="M9820 2831 c5 -11 15 -23 21 -27 6 -3 3 5 -6 20 -20 30 -30 35 -15 7z"/>
<path d="M3332 2798 c-36 -54 -44 -68 -39 -68 2 0 21 25 41 55 20 30 34 55 32
55 -3 0 -18 -19 -34 -42z"/>
<path d="M10326 2810 c26 -46 255 -390 260 -390 6 0 19 -20 -126 200 -105 159
-165 244 -134 190z"/>
<path d="M9867 2760 c9 -17 28 -43 41 -58 13 -15 6 -1 -14 31 -38 59 -58 79
-27 27z"/>
<path d="M3262 2693 c-26 -38 -34 -53 -29 -53 2 0 16 18 31 40 29 45 28 56 -2
13z"/>
<path d="M9945 2644 c10 -17 26 -41 37 -55 l20 -24 -17 31 c-10 17 -26 41 -37
55 l-20 24 17 -31z"/>
<path d="M3186 2573 c-20 -32 -27 -46 -14 -31 26 30 62 88 55 88 -2 0 -21 -26
-41 -57z"/>
<path d="M3634 2513 c-21 -32 -55 -84 -76 -115 -21 -32 -36 -58 -33 -58 3 0
36 46 73 103 83 125 84 127 79 127 -3 0 -22 -26 -43 -57z"/>
<path d="M10021 2526 c12 -20 25 -39 30 -42 5 -3 0 11 -12 30 -12 20 -25 39
-30 42 -5 3 0 -11 12 -30z"/>
<path d="M3130 2490 c-6 -11 -8 -20 -6 -20 3 0 10 9 16 20 6 11 8 20 6 20 -3
0 -10 -9 -16 -20z"/>
<path d="M3082 2418 c-36 -54 -44 -68 -39 -68 2 0 21 25 41 55 20 30 34 55 32
55 -3 0 -18 -19 -34 -42z"/>
<path d="M10095 2413 c18 -30 73 -98 58 -73 -16 29 -66 100 -70 100 -2 0 3
-12 12 -27z"/>
<path d="M5295 2374 c-8 -20 -15 -38 -15 -41 0 -2 -12 -30 -26 -61 -14 -31
-30 -68 -36 -81 -14 -37 -256 -609 -279 -660 -11 -24 -29 -67 -40 -95 -11 -28
-31 -76 -46 -106 -14 -30 -34 -77 -43 -105 -10 -27 -27 -68 -38 -90 -11 -22
-43 -96 -72 -165 -28 -69 -60 -143 -71 -166 -37 -80 -73 -73 426 -76 245 -2
450 -2 455 0 6 2 10 69 10 173 l0 169 -169 0 c-97 0 -172 4 -176 9 -5 8 129
347 255 646 16 39 37 89 46 113 15 38 18 41 29 25 11 -16 66 -149 145 -348 15
-38 62 -153 103 -255 41 -102 100 -246 130 -320 30 -74 63 -152 73 -174 l19
-39 205 2 c113 1 208 5 212 9 3 4 -33 99 -81 212 -49 113 -127 297 -175 410
-48 113 -91 214 -96 225 -5 11 -57 133 -115 270 -58 138 -110 259 -115 270 -6
11 -34 79 -64 150 l-55 130 -190 3 -191 2 -15 -36z m432 -94 c121 -290 169
-403 204 -478 16 -34 29 -64 29 -67 0 -4 164 -393 190 -450 36 -80 125 -286
135 -315 8 -19 30 -73 50 -120 20 -47 39 -91 42 -98 4 -9 -39 -12 -195 -12
l-200 0 -40 98 c-22 53 -79 194 -127 312 -48 118 -102 251 -120 295 -18 44
-62 152 -98 240 -104 255 -97 242 -109 221 -6 -10 -29 -66 -53 -125 -72 -179
-191 -471 -235 -576 -23 -55 -44 -110 -47 -122 l-5 -23 181 0 181 0 0 -144 c0
-79 -3 -151 -6 -160 -5 -14 -54 -16 -441 -16 l-435 0 5 23 c6 23 75 191 120
291 15 32 27 61 27 63 0 3 15 40 34 82 18 42 59 137 91 211 31 74 62 149 70
165 58 133 105 245 105 251 0 3 13 34 29 68 16 33 57 129 91 211 34 83 76 180
92 218 l31 67 180 -2 180 -3 44 -105z"/>
<path d="M8605 2398 c-3 -7 -4 -385 -3 -841 l3 -827 193 -1 c107 -1 197 3 200
7 4 5 5 212 2 459 l-5 450 -3 -452 -2 -453 -190 0 -190 0 0 825 0 825 203 0
c111 0 207 -4 212 -8 6 -4 20 -23 33 -42 12 -19 105 -160 206 -313 168 -255
184 -276 198 -260 14 17 106 157 253 383 110 171 150 229 155 230 5 0 122
-174 333 -497 l87 -133 -2 -502 -3 -503 -192 -3 -193 -2 0 504 c0 278 -4 507
-9 510 -4 3 -65 -81 -134 -187 l-127 -192 0 -317 0 -318 -185 0 -185 0 0 318
0 317 -129 193 c-93 138 -131 188 -135 176 -4 -11 1 -24 14 -36 11 -11 69 -92
128 -181 l107 -162 1 -312 c0 -172 3 -315 6 -319 5 -4 301 -8 386 -4 9 0 12
72 12 323 l0 323 44 67 c24 37 53 81 65 99 11 18 42 66 69 107 44 65 50 71 55
50 3 -13 6 -235 6 -493 0 -258 2 -470 4 -472 2 -3 92 -5 200 -7 156 -2 198 1
202 11 3 8 5 242 5 520 l0 507 -61 95 c-34 52 -65 97 -69 100 -4 3 -9 10 -11
16 -12 33 -276 423 -287 423 -7 1 -69 -86 -138 -191 -69 -106 -161 -246 -203
-310 -42 -64 -78 -117 -81 -117 -3 -1 -90 130 -195 291 -104 160 -200 302
-212 315 -22 23 -25 23 -228 23 -155 0 -207 -3 -210 -12z"/>
<path d="M10600 2391 c5 -11 15 -23 21 -27 6 -3 3 5 -6 20 -20 30 -30 35 -15
7z"/>
<path d="M3747 2333 c-24 -38 -74 -113 -110 -169 -37 -56 -67 -106 -67 -113 0
-8 41 -11 140 -11 77 0 143 0 146 1 4 0 11 -5 15 -13 5 -7 9 -300 8 -652 0
-351 2 -640 4 -643 3 -2 94 -4 204 -4 l198 0 5 653 c3 359 6 654 8 656 1 1
112 2 247 2 l245 0 0 180 0 180 -500 0 -499 0 -44 -67z m1033 -113 l0 -170
-252 0 -253 0 0 -652 0 -653 -192 -3 -193 -2 0 655 0 654 -153 3 -153 3 86
132 c47 72 99 147 114 167 l27 36 485 0 484 0 0 -170z"/>
<path d="M6529 2383 c0 -14 0 -202 1 -326 0 -16 36 -17 648 -15 l647 3 0 175
0 175 -647 3 c-612 2 -648 1 -649 -15z m1281 -168 l0 -165 -635 0 -635 0 0
165 0 165 635 0 635 0 0 -165z"/>
<path d="M8010 2395 c-4 -149 1 -1659 5 -1665 3 -6 16 -8 28 -6 12 3 102 5
200 5 l177 1 0 835 0 835 -205 0 c-113 0 -205 -2 -205 -5z m395 -830 l0 -820
-192 -3 -193 -2 0 825 0 825 193 -2 192 -3 0 -820z"/>
<path d="M3013 2313 c-9 -16 -22 -34 -27 -42 -8 -11 -8 -13 0 -8 13 7 56 77
49 77 -3 0 -12 -12 -22 -27z"/>
<path d="M3500 2310 c-6 -11 -8 -20 -6 -20 3 0 10 9 16 20 6 11 8 20 6 20 -3
0 -10 -9 -16 -20z"/>
<path d="M10686 2260 c26 -38 49 -70 51 -70 5 0 -2 12 -49 83 -21 31 -41 57
-43 57 -3 0 16 -31 41 -70z"/>
<path d="M10165 2310 c16 -28 108 -165 118 -175 15 -15 1 9 -56 95 -47 71 -81
115 -62 80z"/>
<path d="M3444 2223 c-30 -41 -39 -62 -15 -33 23 27 44 60 38 60 -2 0 -12 -12
-23 -27z"/>
<path d="M3358 2093 c-62 -94 -83 -130 -71 -118 19 18 127 185 120 185 -2 0
-24 -30 -49 -67z"/>
<path d="M10299 2102 c6 -12 16 -24 22 -28 8 -4 8 -1 0 14 -6 12 -16 24 -22
28 -8 4 -8 1 0 -14z"/>
<path d="M2852 2068 c-36 -54 -44 -68 -39 -68 2 0 21 25 41 55 20 30 34 55 32
55 -3 0 -18 -19 -34 -42z"/>
<path d="M10810 2071 c5 -11 15 -23 21 -27 6 -3 3 5 -6 20 -20 30 -30 35 -15
7z"/>
<path d="M10355 2020 c16 -28 108 -165 118 -175 15 -15 1 9 -56 95 -47 71 -81
115 -62 80z"/>
<path d="M10850 2011 c5 -11 15 -23 21 -27 6 -3 3 5 -6 20 -20 30 -30 35 -15
7z"/>
<path d="M2782 1963 c-26 -38 -34 -53 -29 -53 2 0 16 18 31 40 29 45 28 56 -2
13z"/>
<path d="M10890 1957 c0 -10 51 -87 57 -87 5 0 -11 27 -44 75 -7 11 -13 16
-13 12z"/>
<path d="M3246 1925 c-9 -14 -23 -37 -32 -52 l-16 -28 20 24 c24 29 55 81 49
81 -3 0 -12 -11 -21 -25z"/>
<path d="M2713 1858 c-19 -24 -63 -98 -59 -98 3 0 17 19 33 43 39 58 45 67 40
67 -3 0 -9 -6 -14 -12z"/>
<path d="M3173 1813 c-9 -16 -22 -34 -27 -42 -8 -11 -8 -13 0 -8 13 7 56 77
49 77 -3 0 -12 -12 -22 -27z"/>
<path d="M10525 1763 c15 -24 30 -43 32 -43 7 0 -31 61 -46 73 -8 7 -2 -7 14
-30z"/>
<path d="M2606 1693 c-20 -32 -27 -46 -14 -31 26 30 62 88 55 88 -2 0 -21 -26
-41 -57z"/>
<path d="M3104 1708 c-4 -7 -14 -24 -22 -38 -14 -24 -13 -24 3 -5 20 24 37 55
31 55 -3 0 -8 -6 -12 -12z"/>
<path d="M6528 1238 c-2 -266 0 -489 3 -496 5 -12 178 -17 401 -12 4 0 9 141
10 313 l3 312 229 3 c126 1 234 7 240 12 7 5 11 30 10 57 -1 26 -2 103 -3 171
l-1 122 -445 0 -444 0 -3 -482z m882 302 l0 -170 -242 0 -243 0 0 -312 0 -313
-192 -3 -193 -2 0 479 c0 374 3 480 13 484 6 3 202 6 435 6 l422 0 0 -169z"/>
<path d="M11050 1718 c0 -10 60 -108 66 -108 3 0 -2 12 -10 28 -21 39 -56 88
-56 80z"/>
<path d="M10601 1646 c12 -20 25 -39 30 -42 5 -3 0 11 -12 30 -12 20 -25 39
-30 42 -5 3 0 -11 12 -30z"/>
<path d="M3049 1623 c-13 -16 -12 -17 4 -4 9 7 17 15 17 17 0 8 -8 3 -21 -13z"/>
<path d="M2543 1598 c-15 -20 -25 -38 -20 -38 3 0 12 11 21 25 17 26 16 35 -1
13z"/>
<path d="M3024 1588 c-4 -7 -14 -24 -22 -38 -14 -24 -13 -24 3 -5 20 24 37 55
31 55 -3 0 -8 -6 -12 -12z"/>
<path d="M11156 1548 c20 -32 39 -58 41 -58 7 0 -29 58 -55 88 -13 15 -6 1 14
-30z"/>
<path d="M10660 1558 c11 -18 26 -43 32 -55 6 -13 15 -23 20 -23 4 0 -8 25
-28 55 -20 30 -39 55 -41 55 -3 0 5 -15 17 -32z"/>
<path d="M2473 1493 c-20 -32 -45 -71 -56 -87 -12 -16 -16 -27 -10 -23 12 8
115 167 108 167 -3 0 -22 -26 -42 -57z"/>
<path d="M2969 1503 c-13 -16 -12 -17 4 -4 16 13 21 21 13 21 -2 0 -10 -8 -17
-17z"/>
<path d="M11225 1443 c15 -24 30 -43 32 -43 7 0 -31 61 -46 73 -8 7 -2 -7 14
-30z"/>
<path d="M10736 1443 c53 -83 67 -103 71 -103 3 0 -3 12 -13 28 -53 82 -67
102 -71 102 -3 0 3 -12 13 -27z"/>
<path d="M2905 1404 c-9 -15 -12 -23 -6 -20 11 7 35 46 28 46 -3 0 -12 -12
-22 -26z"/>
<path d="M2380 1350 c-6 -11 -8 -20 -6 -20 3 0 10 9 16 20 6 11 8 20 6 20 -3
0 -10 -9 -16 -20z"/>
<path d="M11315 1304 c64 -100 88 -134 92 -134 3 0 -1 10 -9 23 -9 12 -36 55
-62 95 -26 39 -49 72 -52 72 -2 0 11 -25 31 -56z"/>
<path d="M10825 1303 c34 -53 45 -67 45 -60 0 10 -51 87 -57 87 -3 0 3 -12 12
-27z"/>
<path d="M2332 1278 c-36 -54 -44 -68 -39 -68 2 0 21 25 41 55 20 30 34 55 32
55 -3 0 -18 -19 -34 -42z"/>
<path d="M2798 1243 c-62 -94 -83 -130 -71 -118 19 18 127 185 120 185 -2 0
-24 -30 -49 -67z"/>
<path d="M2262 1173 c-38 -55 -73 -115 -64 -109 11 6 94 136 87 136 -2 0 -12
-12 -23 -27z"/>
<path d="M10946 1123 c60 -94 87 -133 92 -133 2 0 -4 12 -14 28 -60 93 -87
132 -92 132 -2 0 4 -12 14 -27z"/>
<path d="M11455 1093 c15 -24 30 -43 32 -43 7 0 -31 61 -46 73 -8 7 -2 -7 14
-30z"/>
<path d="M2694 1083 c-30 -41 -39 -62 -15 -33 23 27 44 60 38 60 -2 0 -12 -12
-23 -27z"/>
<path d="M946 1047 c3 -10 9 -15 12 -12 3 3 0 11 -7 18 -10 9 -11 8 -5 -6z"/>
<path d="M2170 1030 c-6 -11 -8 -20 -6 -20 3 0 10 9 16 20 6 11 8 20 6 20 -3
0 -10 -9 -16 -20z"/>
<path d="M11510 1007 c12 -20 27 -40 32 -44 14 -8 -23 55 -40 70 -8 6 -4 -6 8
-26z"/>
<path d="M2082 898 c-75 -113 -91 -139 -75 -123 16 16 154 225 148 225 -2 0
-35 -46 -73 -102z"/>
<path d="M2596 933 c-20 -32 -27 -46 -14 -31 26 30 62 88 55 88 -2 0 -21 -26
-41 -57z"/>
<path d="M11055 956 c10 -14 19 -26 22 -26 7 0 -17 39 -28 46 -6 3 -3 -5 6
-20z"/>
<path d="M11560 931 c5 -11 15 -23 21 -27 6 -3 3 5 -6 20 -20 30 -30 35 -15 7z"/>
<path d="M11090 901 c5 -11 15 -23 21 -27 6 -3 3 5 -6 20 -20 30 -30 35 -15 7z"/>
<path d="M11599 872 c6 -12 16 -24 22 -28 8 -4 8 -1 0 14 -6 12 -16 24 -22 28
-8 4 -8 1 0 -14z"/>
<path d="M2535 839 c-9 -17 -15 -33 -13 -35 3 -2 12 12 21 31 21 43 13 47 -8
4z"/>
<path d="M11145 808 c8 -21 15 -47 15 -59 0 -12 3 -20 6 -16 10 9 -4 71 -21
93 -13 17 -13 14 0 -18z"/>
<path d="M11639 815 c5 -11 17 -29 26 -40 l16 -20 -10 20 c-5 11 -17 29 -26
40 l-16 20 10 -20z"/>
<path d="M2502 735 c0 -16 2 -22 5 -12 2 9 2 23 0 30 -3 6 -5 -1 -5 -18z"/>
<path d="M11716 698 c20 -32 39 -58 41 -58 7 0 -29 58 -55 88 -13 15 -6 1 14
-30z"/>
<path d="M1943 688 c-15 -20 -25 -38 -20 -38 3 0 12 11 21 25 17 26 16 35 -1
13z"/>
<path d="M2502 660 c0 -14 2 -19 5 -12 2 6 2 18 0 25 -3 6 -5 1 -5 -13z"/>
<path d="M11152 629 c-7 -24 -15 -51 -17 -59 -3 -8 4 4 16 28 11 24 19 50 17
59 -2 9 -9 -4 -16 -28z"/>
<path d="M11770 611 c5 -11 15 -23 21 -27 6 -3 3 5 -6 20 -20 30 -30 35 -15 7z"/>
<path d="M1858 558 c-63 -96 -70 -108 -66 -108 5 0 32 39 92 133 10 15 16 27
14 27 -3 0 -21 -24 -40 -52z"/>
<path d="M1347 458 c-41 -79 -106 -205 -144 -281 l-68 -138 -6 128 -5 128 -1
-144 c-1 -78 3 -139 7 -135 4 5 60 111 123 235 63 124 129 251 147 283 18 31
30 59 27 62 -3 3 -39 -59 -80 -138z"/>
<path d="M2520 591 c0 -6 4 -13 10 -16 6 -3 7 1 4 9 -7 18 -14 21 -14 7z"/>
<path d="M2549 544 c12 -25 99 -104 114 -104 5 0 -8 13 -30 29 -22 16 -52 44
-67 62 -15 19 -23 24 -17 13z"/>
<path d="M11079 498 c-14 -13 -36 -31 -49 -41 -24 -17 -24 -17 8 0 31 17 82
63 70 63 -3 0 -16 -10 -29 -22z"/>
<path d="M11849 495 c5 -11 17 -29 26 -40 l16 -20 -10 20 c-5 11 -17 29 -26
40 l-16 20 10 -20z"/>
<path d="M1775 429 c-4 -6 -5 -12 -2 -15 2 -3 7 2 10 11 7 17 1 20 -8 4z"/>
<path d="M1113 395 c0 -22 2 -30 4 -17 2 12 2 30 0 40 -3 9 -5 -1 -4 -23z"/>
<path d="M2708 423 c6 -2 18 -2 25 0 6 3 1 5 -13 5 -14 0 -19 -2 -12 -5z"/>
<path d="M10948 423 c7 -3 16 -2 19 1 4 3 -2 6 -13 5 -11 0 -14 -3 -6 -6z"/>
<path d="M11901 400 c15 -45 24 -54 15 -15 -4 17 -12 34 -17 40 -5 5 -4 -6 2
-25z"/>
<path d="M4793 413 c1126 -2 2968 -2 4095 0 1126 1 204 2 -2048 2 -2252 0
-3174 -1 -2047 -2z"/>
<path d="M11923 300 c0 -30 2 -43 4 -27 2 15 2 39 0 55 -2 15 -4 2 -4 -28z"/>
<path d="M1751 244 c0 -11 3 -14 6 -6 3 7 2 16 -1 19 -3 4 -6 -2 -5 -13z"/>
<path d="M1760 212 c0 -22 37 -86 61 -107 l24 -20 -22 25 c-12 14 -31 45 -42
70 -11 25 -21 39 -21 32z"/>
<path d="M11887 165 c-9 -19 -15 -35 -12 -35 7 0 37 61 33 66 -3 2 -12 -12
-21 -31z"/>
<path d="M11820 78 c-25 -22 -36 -36 -25 -30 19 10 84 72 74 72 -2 -1 -24 -19
-49 -42z"/>
<path d="M1850 76 c0 -2 8 -10 18 -17 15 -13 16 -12 3 4 -13 16 -21 21 -21 13z"/>
<path d="M1895 39 c6 -9 75 -33 80 -27 2 2 -16 11 -40 19 -25 9 -42 13 -40 8z"/>
<path d="M11698 13 c7 -3 16 -2 19 1 4 3 -2 6 -13 5 -11 0 -14 -3 -6 -6z"/>
<path d="M4438 3 c1322 -2 3482 -2 4800 0 1318 1 237 2 -2403 2 -2640 0 -3719
-1 -2397 -2z"/>
</g>
</svg>
